<svg width="16" height="16" viewBox="0 0 16 16" fill="none" xmlns="http://www.w3.org/2000/svg">
<path opacity="0.5" fill-rule="evenodd" clip-rule="evenodd" d="M0 8C0 3.6 3.6 0 8 0C12.4 0 16 3.6 16 8C16 12.4 12.4 16 8 16C3.6 16 0 12.4 0 8ZM10 11C10.9 11.3 11.7 11.6 12.1 12.3C13.3 11.2 14 9.7 14 8C14 4.7 11.3 2 8 2C4.7 2 2 4.7 2 8C2 9.7 2.7 11.2 3.9 12.3C4.3 11.6 5.1 11.3 6 11C6.7 10.8 6.9 10.4 7 9.8C5.8 9.4 5 8.3 5 7C5 5.3 6.3 4 8 4C9.7 4 11 5.3 11 7C11 8.3 10.1 9.4 9 9.8C9.1 10.4 9.3 10.8 10 11Z" fill="white"/>
</svg>
